<svg xmlns="http://www.w3.org/2000/svg" width="56" height="56" viewBox="0 0 56 56">
    <g fill="none" fill-rule="evenodd" transform="translate(8 8)">
        <circle cx="20" cy="20" r="24" fill="#373CF5" fill-rule="nonzero" stroke="#FFF" stroke-width="8"/>
        <path fill="#FFF" d="M29 19.936a1.013 1.013 0 0 0-.288-.708v-.001l-6.796-6.935a.955.955 0 0 0-1.38.006c-.381.394-.378 1.03.004 1.421l5.113 5.217H10.976c-.54 0-.976.449-.976 1.004 0 .556.436 1.005.976 1.005h14.706l-5.146 5.343c-.381.395-.378 1.03.004 1.42a.958.958 0 0 0 1.382-.005l6.791-7.051.002-.002.002-.002c.018-.018.023-.043.039-.062.066-.08.129-.163.169-.26.035-.088.044-.184.055-.278.002-.037.02-.07.02-.108v-.002-.002"/>
    </g>
</svg>
