<svg xmlns="http://www.w3.org/2000/svg" xmlns:xlink="http://www.w3.org/1999/xlink" width="14" height="27" viewBox="0 0 14 27">
    <defs>
        <path id="a" d="M968.473 3397.006l-3.358-.006c-3.773 0-6.21 2.608-6.21 6.645v3.063h-3.377a.54.54 0 0 0-.528.551v4.44c0 .303.237.55.528.55h3.376v11.2c0 .305.237.551.528.551h4.405a.54.54 0 0 0 .528-.55v-11.201h3.948a.54.54 0 0 0 .528-.55l.002-4.44a.564.564 0 0 0-.155-.39.517.517 0 0 0-.374-.16h-3.949v-2.598c0-1.248.286-1.882 1.845-1.882h2.262a.54.54 0 0 0 .528-.551v-4.122a.54.54 0 0 0-.527-.55z"/>
    </defs>
    <use fill="#373CF5" fill-rule="nonzero" transform="translate(-955 -3397)" xlink:href="#a"/>
</svg>
